<?xml version="1.0" encoding="utf-8"?>
<!-- Generator: Adobe Illustrator 26.0.2, SVG Export Plug-In . SVG Version: 6.00 Build 0)  -->
<svg version="1.1" id="Calque_1" xmlns="http://www.w3.org/2000/svg" xmlns:xlink="http://www.w3.org/1999/xlink" x="0px" y="0px"
	 viewBox="0 0 873 981" style="enable-background:new 0 0 873 981;" xml:space="preserve">
<style type="text/css">
	.st0{fill:#99E2FF;}
	.st1{fill:none;stroke:#000000;stroke-width:20;stroke-linecap:round;stroke-miterlimit:10;}
	.st2{fill:#FFFFFF;}
	.st3{fill:none;stroke:#000000;stroke-width:20;stroke-linecap:round;}
	.st4{fill:url(#SVGID_1_);}
</style>
<path class="st0" d="M258,273.5c-132.4,68.4-120.2,250.5-97.5,333l6,35c-114,18.8-107.2,111.8-89.5,156c59.2,106.8,138,63.8,170,29
	c12,29.2,56,71.5,76.5,89C365,950.8,485.2,1004.6,634,937c186-84.5,176-291,139.5-452C744.3,356.2,638.3,280.3,589,258.5
	C533.8,235,390.4,205.1,258,273.5z"/>
<path class="st1" d="M165.6,634.9c0,0-130.6-402.9,273.6-402.9c323.7,0,354.7,349,354.7,349s8.5,73.4-4.2,147.6
	C754.8,933,531.2,1031.3,350,930.5c-41.3-22.9-79.3-56.5-102.6-105.5"/>
<path class="st1" d="M230.3,669.4c0,0-84-71.1-144.4,15.1c-32.6,46.6-23,91.3-7.4,122.5c18.6,37.1,57,60.8,98.5,58
	c31.6-2.2,66.2-18.9,83.4-72.8"/>
<path class="st1" d="M158,708.2c0,0,43.1,12.9,43.1,66.8"/>
<path class="st2" d="M505.5,698c-26,20-33.2-9.7-33.5-27l52-9C528.7,665.7,531.5,678,505.5,698z"/>
<path class="st1" d="M409,596.5c0,0,36.7-27.6,65,6.5"/>
<path class="st1" d="M710,591.5c0,0-30.5-27.6-54,6.5"/>
<path class="st1" d="M438,641c0,0,16.6,29,41.2,27.4c8-0.6,15.9-2.1,23.5-4.5c6.1-2,12.5-2.6,18.9-1.8c6.4,0.8,12.5,2.9,17.9,6.3
	c10.5,6.6,25.8,11.9,44.6,6.1c12.5-3.8,21.8-8.2,28.5-12.4c5.6-3.5,11.9-5.6,18.5-6.4c6.5-0.7,13.2,0,19.4,2.1
	c15.3,5.2,34.6,5.8,42.5-18.9"/>
<path class="st1" d="M465,666c0,0,9.9,26.8,23.9,38.2c1.5,1.2,3.4,1.9,5.3,1.8c1.9,0,3.8-0.7,5.3-2c8-6.9,23.9-22.6,27.5-41"/>
<path class="st3" d="M319.5,652.7c-9.7,0.7-34,4.2-53.5,13.1"/>
<path class="st3" d="M330.4,687.7c-9.4,2.3-32.8,9.7-50.9,21.1"/>
<path class="st3" d="M807.8,635.2c9.8-1.2,34.4-2,55,4.2"/>
<path class="st3" d="M801.5,677.4c9.7,0.7,33.9,4.5,53.4,13.9"/>
<linearGradient id="SVGID_1_" gradientUnits="userSpaceOnUse" x1="850.9803" y1="676.6484" x2="40.4803" y2="639.6484" gradientTransform="matrix(1 0 0 -1 0 982)">
	<stop  offset="0" style="stop-color:#7EBCF6"/>
	<stop  offset="0.1919" style="stop-color:#86EF8F"/>
	<stop  offset="0.3736" style="stop-color:#FFE994"/>
	<stop  offset="0.5215" style="stop-color:#FFB2BD"/>
	<stop  offset="1" style="stop-color:#7FB2FF"/>
</linearGradient>
<path class="st4" d="M113.5,644.5c45.2-26.4,92.2-4.7,110,9.5l22.5-18l10-33l15-61.5l-6-15.5l-5-45l11-9.5c2.3-4,7.6-12.7,10-15.5
	s3.7-11.2,4-15c2-9.3,7.5-29.2,13.5-34s2.5-15.7,0-20.5c49.6,3.6,109-17.5,132.5-28.5l86.5,24H589l78-13.5l39.5-25
	c36.4,40,64.5,107,74,135c11-6.3,32.6-21.3,35-22.5c3-1.5,12-18,13.5-22c1.2-3.2,3.8-23,5-32.5l-34-59l18-46v-68V186l-28-50
	l-33.5-24.5l-51-15l-80,7.5L589,123.5c-3.2-2.3-9.8-8-11-12c-1.5-5-3-13.5-7.5-19.5s-13.5-13-20-20.5s-10-14.5-15-22
	s-10-8-15.5-12.5s-22.5-10-31.5-16.5s-20-10.5-26-14.5c-6-4-56,0-58.5,0c-2,0-42.2,12.7-62,19c-15,13.5-46.2,42.5-51,50.5
	c-6,10-8,13.5-10,20c-2,6.5-2,15.5-5.5,23c-2.8,6-8.2,8.2-10.5,8.5c-5-4-15.7-12.8-18.5-16c-3.5-4-24.5-6.5-27.5-6.5s-21-1.5-25.5,0
	s-15.5,9-17,10.5c-1.2,1.2-18.5,22.8-27,33.5v43H124l-36.5,9l-44.5,28c-6.3,19-19.2,57.5-20,59.5c-1,2.5,6.5,51.5,7,53.5
	c0.4,1.6,19.8,40.3,29.5,59.5L36,431l-22,39.5v55l33,47l60.5,21c2,3.2,6,10.2,6,13s-7.3,15.8-11,22L113.5,644.5z"/>
<path class="st1" d="M222,658c0,0,75.2-49.5,37.6-170.9c-0.2-0.6-0.2-1.3-0.1-1.9c0.1-0.6,0.4-1.2,0.8-1.7
	c7.1-8.4,38.9-48.6,32.5-91.4c-0.1-0.6,0-1.2,0.1-1.7c0.2-0.6,0.5-1.1,0.9-1.5c0.4-0.4,0.9-0.8,1.4-1c0.6-0.2,1.1-0.3,1.7-0.2
	c20.2,1.7,95.2,5.5,132.1-29.8c0.5-0.5,1.2-0.9,2-1c0.7-0.1,1.5-0.1,2.2,0.2c20.8,8.7,175.1,67.7,301.6-30"/>
<path class="st1" d="M771,479c0,0,35.3-7.3,53.8-37.6c14.7-24.1,12.5-54.6-4.2-77.3c-6-8.1-13.4-16.5-21.3-22
	c-0.9-0.6-1.5-1.5-1.8-2.5c-0.3-1-0.1-2.1,0.3-3.1c11.7-23.6,72.5-158.7-35.8-222.4c0,0-93.6-45.9-173.5,10.9
	c-0.6,0.4-1.3,0.7-2,0.8c-0.7,0.1-1.4,0-2.1-0.2c-0.7-0.3-1.3-0.7-1.8-1.2c-0.5-0.5-0.8-1.2-1-1.9C575.5,97.2,545.7,10,425,10
	c-119.5,0-147,86.2-152.7,112.5c-0.2,0.7-0.5,1.4-1,2c-0.5,0.6-1.1,1-1.8,1.3c-0.7,0.3-1.5,0.3-2.2,0.2c-0.7-0.1-1.4-0.4-2-0.9
	c-13.9-11.1-50.9-35.3-87.2-14c-36.8,21.6-32,61.7-28.6,77c0.2,0.7,0.1,1.4,0,2.1c-0.2,0.7-0.5,1.3-0.9,1.8c-0.5,0.5-1,0.9-1.7,1.2
	c-0.6,0.3-1.3,0.4-2,0.3C120.7,191.6,34.9,192.6,22,293c0,0,3.8,64,37.8,107.1c0.4,0.5,0.7,1,0.8,1.6c0.2,0.6,0.2,1.2,0.1,1.8
	c-0.1,0.6-0.3,1.2-0.6,1.7c-0.3,0.5-0.8,1-1.3,1.3C45.2,415.6,3.6,448.7,12,510c8.3,60.8,76.3,79.3,98.8,83.8c0.7,0.1,1.4,0.5,2,0.9
	c0.6,0.5,1,1.1,1.3,1.8c0.3,0.7,0.4,1.4,0.3,2.2c-0.1,0.7-0.4,1.4-0.8,2c-7.7,10.9-20.3,35.2,3.2,53.3"/>
</svg>
